<?xml version="1.0" encoding="UTF-8" standalone="no"?>
<!-- Created with Inkscape (http://www.inkscape.org/) -->

<svg
   xmlns:dc="http://purl.org/dc/elements/1.1/"
   xmlns:cc="http://creativecommons.org/ns#"
   xmlns:rdf="http://www.w3.org/1999/02/22-rdf-syntax-ns#"
   xmlns:svg="http://www.w3.org/2000/svg"
   xmlns="http://www.w3.org/2000/svg"
   xmlns:sodipodi="http://sodipodi.sourceforge.net/DTD/sodipodi-0.dtd"
   xmlns:inkscape="http://www.inkscape.org/namespaces/inkscape"
   width="192"
   height="192"
   viewBox="0 0 192 192.00002"
   id="svg3443"
   version="1.1"
   inkscape:version="0.92.2 (5c3e80d, 2017-08-06)"
   sodipodi:docname="logooriginal.svg"
   inkscape:export-filename="D:\!EPDEV\static\logo1920.png"
   inkscape:export-xdpi="960"
   inkscape:export-ydpi="960">
  <defs
     id="defs3445">
    <inkscape:path-effect
       effect="powerstroke"
       id="path-effect3560"
       is_visible="true"
       offset_points="0,0.5"
       sort_points="true"
       interpolator_type="Linear"
       interpolator_beta="0.2"
       start_linecap_type="zerowidth"
       linejoin_type="round"
       miter_limit="4"
       end_linecap_type="zerowidth"
       cusp_linecap_type="round" />
  </defs>
  <sodipodi:namedview
     id="base"
     pagecolor="#ffffff"
     bordercolor="#666666"
     borderopacity="1.0"
     inkscape:pageopacity="0"
     inkscape:pageshadow="2"
     inkscape:zoom="1.4142136"
     inkscape:cx="-73.769548"
     inkscape:cy="89.741047"
     inkscape:document-units="px"
     inkscape:current-layer="layer1"
     showgrid="false"
     inkscape:window-width="1366"
     inkscape:window-height="705"
     inkscape:window-x="-8"
     inkscape:window-y="-8"
     inkscape:window-maximized="1"
     units="px"
     showguides="true"
     inkscape:guide-bbox="true" />
  <metadata
     id="metadata3448">
    <rdf:RDF>
      <cc:Work
         rdf:about="">
        <dc:format>image/svg+xml</dc:format>
        <dc:type
           rdf:resource="http://purl.org/dc/dcmitype/StillImage" />
        <dc:title />
      </cc:Work>
    </rdf:RDF>
  </metadata>
  <g
     inkscape:label="Ebene 1"
     inkscape:groupmode="layer"
     id="layer1"
     transform="translate(0,-860.36195)">
    <rect
       style="color:#000000;clip-rule:nonzero;display:inline;overflow:visible;visibility:visible;opacity:1;isolation:auto;mix-blend-mode:normal;color-interpolation:sRGB;color-interpolation-filters:linearRGB;solid-color:#000000;solid-opacity:1;fill:#ffffff;fill-opacity:1;fill-rule:nonzero;stroke:#502d16;stroke-width:0;stroke-linecap:butt;stroke-linejoin:miter;stroke-miterlimit:0;stroke-dasharray:none;stroke-dashoffset:0;stroke-opacity:1;color-rendering:auto;image-rendering:auto;shape-rendering:auto;text-rendering:auto;enable-background:accumulate"
       id="rect4156"
       width="15.625"
       height="34.125"
       x="155.37498"
       y="922.11194" />
    <path
       style="fill:#ffcc00;fill-opacity:1;stroke-width:1;stroke-miterlimit:4;stroke-dasharray:none"
       d="m 63.116978,860.36198 c -6.424557,0 -11.595448,4.83112 -11.595448,10.83109 l 0,1.45784 -9.11831,0 c -14.072858,0 -25.403227,10.58151 -25.403227,23.72428 l 0,132.26451 c 0,13.1428 11.330369,23.7223 25.403227,23.7223 l 89.14383,0 c 14.07305,0 25.40131,-10.5795 25.40131,-23.7223 l 0,-132.26451 c 0,-13.14277 -11.32826,-23.72428 -25.40131,-23.72428 l -7.45668,0 0,-1.45784 c 0,-5.99997 -5.17095,-10.83109 -11.59564,-10.83109 l -49.377752,0 z"
       id="rect3475"
       inkscape:connector-curvature="0" />
    <rect
       style="fill:#ffffff;fill-opacity:1;stroke-width:1;stroke-miterlimit:4;stroke-dasharray:none"
       id="rect3518"
       width="55.32074"
       height="13.319739"
       x="60.131084"
       y="867.35425"
       ry="4.9646292" />
    <rect
       style="fill:#ffffff;fill-opacity:1;stroke-width:1;stroke-miterlimit:4;stroke-dasharray:none"
       id="rect3520"
       width="103.60675"
       height="138.5759"
       x="35.021416"
       y="893.79913"
       ry="0" />
    <path
       style="color:#000000;clip-rule:nonzero;display:inline;overflow:visible;visibility:visible;opacity:1;isolation:auto;mix-blend-mode:normal;color-interpolation:sRGB;color-interpolation-filters:linearRGB;solid-color:#000000;solid-opacity:1;fill:#efefef;fill-opacity:1;fill-rule:nonzero;stroke:#000000;stroke-width:0;stroke-linecap:butt;stroke-linejoin:miter;stroke-miterlimit:0;stroke-dasharray:none;stroke-dashoffset:0;stroke-opacity:1;color-rendering:auto;image-rendering:auto;shape-rendering:auto;text-rendering:auto;enable-background:accumulate"
       d="m 119.49596,1032.3395 -0.0332,0.034 0,-19.6364 19.16912,0 z"
       id="rect3371-8"
       inkscape:connector-curvature="0"
       sodipodi:nodetypes="ccccc" />
    <path
       style="color:#000000;clip-rule:nonzero;display:inline;overflow:visible;visibility:visible;opacity:1;isolation:auto;mix-blend-mode:normal;color-interpolation:sRGB;color-interpolation-filters:linearRGB;solid-color:#000000;solid-opacity:1;fill:#ffcc00;fill-opacity:1;fill-rule:nonzero;stroke:#000000;stroke-width:0;stroke-linecap:butt;stroke-linejoin:miter;stroke-miterlimit:0;stroke-dasharray:none;stroke-dashoffset:0;stroke-opacity:1;color-rendering:auto;image-rendering:auto;shape-rendering:auto;text-rendering:auto;enable-background:accumulate"
       d="m 139.6579,1011.6951 0.0369,-0.037 0,21.8182 -21.29902,0 z"
       id="rect3371"
       inkscape:connector-curvature="0"
       sodipodi:nodetypes="ccccc" />
    <flowRoot
       xml:space="preserve"
       id="flowRoot3530"
       style="font-style:normal;font-weight:normal;line-height:0.01%;font-family:sans-serif;letter-spacing:0px;word-spacing:0px;fill:#00a9ff;fill-opacity:1;stroke:none;stroke-width:1px;stroke-linecap:butt;stroke-linejoin:miter;stroke-opacity:1"
       transform="matrix(1.7147595,-0.00785217,0.00830915,1.6593279,-104.88932,687.35297)"><flowRegion
         id="flowRegion3532"><rect
           id="rect3534"
           width="76.013985"
           height="130.81474"
           x="79.903069"
           y="113.3244"
           style="font-size:90px;fill:#00a9ff" /></flowRegion><flowPara
         id="flowPara3536"
         style="font-style:normal;font-variant:normal;font-weight:normal;font-stretch:normal;font-size:90px;line-height:1.25;font-family:'Berlin Sans FB';-inkscape-font-specification:'Berlin Sans FB';fill:#00a9ff">E</flowPara></flowRoot>    <path
       style="fill:#00a9ff;fill-opacity:1;stroke-width:1;stroke-miterlimit:4;stroke-dasharray:none"
       d="m 137.9759,905.56646 -3.41325,9.96946 14.73667,4.75569 -0.005,0.017 a 25.948898,17.127367 17.313033 0 1 19.17535,24.20881 25.948898,17.127367 17.313033 0 1 -30.18884,8.23508 l 5.50153,-16.22302 3.35501,-9.897 -14.74499,-4.75781 0.20177,-0.59872 -22.74044,66.39841 c -0.002,-7.9e-4 -0.004,-10e-4 -0.005,-0.002 l 0,0.0255 -0.005,0.0213 0.005,0.002 c 0.0169,7.86688 0.0329,15.73464 0.05,23.60164 4.86559,-6.2708 9.72973,-12.54116 14.59523,-18.81186 l 0.0437,0.013 10.33959,-30.19179 c 20.62295,6.07098 42.30451,-0.86723 45.56201,-15.73296 3.45551,-13.23228 -9.45969,-29.59602 -27.76776,-36.22584 l 0.002,-0.004 -0.0749,-0.0235 c -0.008,-0.004 -0.0188,-0.009 -0.0312,-0.0128 0,0 0,0.002 0,0.002 l -14.59108,-4.76846 -0.002,0 z"
       id="path3650"
       inkscape:connector-curvature="0" />
  </g>
</svg>
